<?xml version="1.0" encoding="utf-8"?>
<!-- Generator: Adobe Illustrator 19.0.0, SVG Export Plug-In . SVG Version: 6.00 Build 0)  -->
<svg version="1.1" id="Calque_1" xmlns="http://www.w3.org/2000/svg" xmlns:xlink="http://www.w3.org/1999/xlink" x="0px" y="0px"
	 viewBox="0 0 64 64" style="enable-background:new 0 0 64 64;" xml:space="preserve">
<style type="text/css">
	.st0{fill:none;stroke:#FFFFFF;stroke-width:1.8;stroke-miterlimit:10;}
	.st1{fill:#FFFFFF;}
</style>
<circle class="st0" cx="32.3" cy="32" r="30"/>
<path class="st1" d="M50.5,13.6c-2.3-2.3-5.1-4.1-8.1-5.4c-3.3-1.4-7-2.1-10.8-2c-3.8,0.1-7.4,1-10.7,2.6C12.1,13.1,6,22.3,6.3,32.8
	c0.3,12.8,9.8,23.2,22,25c-0.2-6.2-0.3-12.4-0.5-18.6c-2.2,0.1-4.3,0.1-6.4,0.2c-0.1-2.6-0.1-5.1-0.2-7.7c2.2-0.1,4.3-0.1,6.4-0.2
	c-0.1-2.2-0.1-4.4-0.2-6.6c0-1.5,0.3-3,1-4.4c1.6-3,4.2-4.5,7.6-4.6c1.4-0.1,2.8-0.1,4.2-0.1c0.8,0,1.6,0.1,2.4,0.1
	c0.1,2.3,0.1,4.6,0.2,6.9c-0.5,0-0.9,0-1.3,0c-1.3,0.1-2.6,0.1-3.8,0.2c-1.2,0.1-2.1,0.9-2.2,2c-0.1,1.3-0.1,2.7-0.1,4
	c0,0.7,0,1.4,0.1,2.2c2.5-0.1,4.9-0.1,7.4-0.2c-0.3,2.6-0.5,5.1-0.8,7.7c-2.1,0.1-4.2,0.1-6.3,0.2c0.2,6.3,0.3,12.5,0.5,18.8
	c5.9-0.9,11.2-3.9,15-8.1c4.4-4.8,7-11.2,6.8-18.2C58.1,24.5,55.2,18.2,50.5,13.6z"/>
</svg>
