<?xml version="1.0" encoding="utf-8"?>
<!-- Generator: Adobe Illustrator 19.0.0, SVG Export Plug-In . SVG Version: 6.00 Build 0)  -->
<svg version="1.1" id="Calque_1" xmlns="http://www.w3.org/2000/svg" xmlns:xlink="http://www.w3.org/1999/xlink" x="0px" y="0px"
	 viewBox="0 0 63.7 63.3" style="enable-background:new 0 0 63.7 63.3;" xml:space="preserve">
<style type="text/css">
	.st0{fill:#FFFFFF;}
	.st1{fill:none;stroke:#FFFFFF;stroke-width:1.8;stroke-miterlimit:10;}
</style>
<g id="XMLID_3_">
	<g id="XMLID_4_">
		<g>
			<path class="st0" d="M16.5,41.6c1.2,0.6,2.5,1.2,3.8,1.6c5.8,1.9,11.4,1.2,16.3-2.4c3.7-2.6,5.8-6.4,6.7-10.8
				c0.3-1.2,0.3-2.5,0.5-3.8c0.1-0.4,0.4-0.7,0.6-1c0.8-0.9,1.3-1.4,2.1-2.2c0.1-0.1,0.7-0.7,0.6-0.7c-0.9,0.3-2.1,0.7-3,0.9
				c0.7-1,1.1-1.7,1.8-2.7c0-0.1,0.4-0.6,0.3-0.7c-0.9,0.4-2.1,0.9-3,1.3c-1.5,0.6-1.1,0.2-1.8-0.2c-3.4-2.4-7.5-1.7-9.4,1.7
				c-0.7,1.2-0.8,2.8-1.2,4.5c-4.8-0.3-8.8-2.7-12.2-6.5c-1.5,2.4-1.5,5.2,1.3,8.3c-0.9-0.3-1.5-0.5-2.3-0.8c0,3,1.5,4.9,3.9,6.4
				c-0.5,0-1.1-0.1-1.6-0.1c-0.1,1.8,2.5,4.4,5.3,4.5c-2.7,2-5.6,2.6-8.8,2.4C16.5,41.3,16.5,41.5,16.5,41.6z M31.8,5.9
				c14.4,0,26,11.6,26,26s-11.6,26-26,26c-14.4,0-26-11.6-26-26S17.5,5.9,31.8,5.9z"/>
		</g>
		<g>
			<path class="st1" d="M61.8,31.9c0,16.6-13.4,30-30,30c-16.6,0-30-13.4-30-30c0-16.6,13.4-30,30-30C48.4,1.9,61.8,15.3,61.8,31.9z
				"/>
		</g>
	</g>
</g>
</svg>
