<?xml version="1.0" encoding="utf-8"?>
<!-- Generator: Adobe Illustrator 19.0.0, SVG Export Plug-In . SVG Version: 6.00 Build 0)  -->
<svg version="1.1" xmlns="http://www.w3.org/2000/svg" xmlns:xlink="http://www.w3.org/1999/xlink" x="0px" y="0px"
	 viewBox="0 0 1024 1024" style="enable-background:new 0 0 1024 1024;" xml:space="preserve">
<style type="text/css">
	.st0{fill:#FFFFFF;}
	.st1{font-family:'HandOfSean';}
	.st2{font-size:176.0609px;}
	.st3{font-size:56.845px;}
</style>
<g id="Calque_2">
</g>
<g id="Calque_1">
	<text id="XMLID_6_" transform="matrix(1 0 0 1 250.3164 221.4144)" class="st0 st1 st2">Yapst</text>
	<text id="XMLID_5_" transform="matrix(1 0 0 1 170.707 908.8402)"><tspan x="0" y="0" class="st0 st1 st3">People’s eyes everywhere</tspan><tspan x="221.9" y="68.2" class="st0 st1 st3">around us</tspan></text>
	<path id="XMLID_9_" class="st0" d="M520.3,338.1c-109.4,0.3-197.9,89.2-197.7,198.6c0.1,23.5,4.2,45.9,11.7,66.8
		c12.5,38.1,39.1,83.4,96.1,109.1c9.1,4.7,18.6,8.6,28.4,11.9c3,2.7,4.8,6.6,4.8,10.7l0.1,36.3c0,9.9,9.6,16.9,19,13.8
		c38-12.3,124.8-46.1,181.9-112.9c33.7-35.6,54.4-83.8,54.3-136.7C718.6,426.3,629.7,337.8,520.3,338.1z M473.2,540.5
		c-1.4,11.1-10.4,20.1-21.5,21.5c-16.3,2.1-30.1-11.7-28-28c1.4-11.1,10.4-20.1,21.5-21.5C461.6,510.4,475.3,524.1,473.2,540.5z
		 M617.2,540.5c-1.4,11.1-10.4,20.1-21.5,21.5c-16.3,2.1-30.1-11.7-28-28c1.4-11.1,10.4-20.1,21.5-21.5
		C605.5,510.4,619.2,524.1,617.2,540.5z M684.2,591.2l-24,0c5.1-12.8,9-25.7,11-38.3c4.3-27.8-1-54.1-23.9-74.6
		c-12.3-11-35.8-21-52.3-21.5c-33.4-1-62.3,18.6-75,47c-12.4-27.7-40.2-47.1-72.6-47.1c-22.2,0-43.7,9.5-58.7,25.9
		C360.2,514,365.3,554,380.2,591l-23.2,0c-5.6-15.6-9.5-31.6-10.6-48.2c-1-15,0.1-30.5,4.2-46.7c10.9-43.9,38-83.1,77.6-105.8
		c27.9-15.9,60.1-22.8,92-22.8c49.4,0,97.9,17.2,131.3,54.6c32.8,36.7,53.1,98.1,40.1,146.8C689.5,576.5,687,583.9,684.2,591.2z"/>
</g>
</svg>
